<?xml version="1.0" standalone="no"?>
<!DOCTYPE svg PUBLIC "-//W3C//DTD SVG 20010904//EN"
 "http://www.w3.org/TR/2001/REC-SVG-20010904/DTD/svg10.dtd">
<svg version="1.0" xmlns="http://www.w3.org/2000/svg"
 width="625.000000pt" height="276.000000pt" viewBox="0 0 625.000000 276.000000"
 preserveAspectRatio="xMidYMid meet">

<g transform="translate(0.000000,276.000000) scale(0.100000,-0.100000)"
fill="#000000" stroke="none">
<path d="M254 1866 c-20 -9 -35 -25 -43 -46 -14 -43 -15 -465 -1 -507 13 -37
46 -53 105 -53 l45 0 0 -53 c0 -70 27 -98 100 -105 l50 -5 0 -44 c0 -97 18
-103 307 -103 261 0 285 5 303 67 8 25 10 116 8 270 -3 229 -3 232 -27 257
-20 22 -33 26 -78 26 l-53 0 0 49 c0 71 -28 102 -98 109 l-52 5 0 38 c0 58
-18 87 -59 99 -57 16 -469 12 -507 -4z m566 -221 l0 -75 75 0 75 0 0 -205 0
-206 -26 -24 c-27 -25 -28 -25 -230 -25 l-204 0 0 75 0 75 -75 0 -75 0 0 195
c0 203 5 235 44 253 12 6 104 11 219 11 l197 1 0 -75z"/>
<path d="M535 1545 c-24 -23 -25 -29 -25 -155 l0 -130 130 0 c126 0 132 1 155
25 24 23 25 29 25 155 l0 130 -130 0 c-126 0 -132 -1 -155 -25z"/>
<path d="M1777 1687 c-80 -19 -135 -60 -171 -130 -26 -50 -29 -68 -29 -145 0
-103 20 -159 78 -215 52 -51 120 -71 230 -70 50 1 104 6 120 11 28 8 30 12 33
66 3 57 2 58 -20 51 -13 -4 -61 -9 -108 -12 -96 -5 -137 9 -174 60 -26 36 -30
155 -6 201 29 56 62 71 158 71 48 0 102 -4 120 -8 l32 -9 0 56 0 55 -37 10
c-66 18 -166 21 -226 8z"/>
<path d="M2745 1690 c-109 -16 -155 -65 -155 -163 0 -53 3 -62 33 -91 17 -18
55 -41 82 -51 164 -60 160 -57 163 -96 3 -33 0 -38 -29 -48 -44 -15 -104 -14
-172 4 -32 8 -60 15 -62 15 -3 0 -5 -25 -5 -55 l0 -54 43 -12 c23 -6 83 -12
132 -12 101 0 161 19 205 67 22 24 25 37 25 98 0 68 -1 70 -41 108 -31 29 -62
44 -127 64 -111 34 -140 62 -102 100 31 30 151 31 228 0 16 -6 18 -1 15 52 -3
52 -5 58 -29 64 -47 13 -153 18 -204 10z"/>
<path d="M2120 1410 l0 -280 205 0 205 0 0 50 0 49 -137 3 -138 3 0 60 0 60
123 3 122 3 0 49 0 49 -122 3 -123 3 0 60 0 60 138 3 137 3 0 49 0 50 -205 0
-205 0 0 -280z"/>
<path d="M3090 1410 l0 -280 65 0 65 0 0 280 0 280 -65 0 -65 0 0 -280z"/>
<path d="M3320 1410 l0 -280 70 0 70 0 2 166 3 166 119 -166 118 -166 59 0 59
0 0 280 0 280 -70 0 -70 0 -2 -167 -3 -168 -119 168 -119 167 -59 0 -58 0 0
-280z"/>
<path d="M3910 1410 l0 -280 134 0 c229 0 297 25 344 128 22 49 26 71 26 152
0 81 -4 103 -26 152 -47 103 -115 128 -344 128 l-134 0 0 -280z m309 161 c33
-18 54 -70 58 -146 9 -138 -27 -183 -150 -192 l-77 -6 0 183 0 183 74 -6 c41
-3 84 -10 95 -16z"/>
<path d="M4500 1410 l0 -280 200 0 200 0 0 50 0 50 -135 0 -135 0 0 65 0 65
120 0 120 0 0 50 0 50 -120 0 -120 0 0 65 0 65 135 0 135 0 0 50 0 50 -200 0
-200 0 0 -280z"/>
<path d="M4980 1410 l0 -280 205 0 205 0 0 50 0 49 -137 3 -138 3 0 60 0 60
123 3 122 3 0 49 0 49 -122 3 -123 3 0 60 0 60 138 3 137 3 0 49 0 50 -205 0
-205 0 0 -280z"/>
<path d="M5460 1409 l0 -281 168 4 c154 4 171 6 217 29 65 33 103 92 116 183
18 131 -18 254 -89 301 -51 34 -121 45 -278 45 l-134 0 0 -281z m309 162 c40
-22 56 -69 56 -166 0 -136 -24 -163 -151 -172 l-74 -6 0 183 0 183 74 -6 c41
-3 84 -10 95 -16z"/>
</g>
</svg>
